# xmcd
#
# Track frame offsets:
#	150
#	14352
#	26901
#	52096
#	71353
#	102969
#	124578
#	141725
#	162837
#	181917
#	206788
#	239350
#	256607
#
# Disc length: 3700 seconds
# Revision: 0
# Processed by: cddbd v1.5.2PL0 Copyright (c) Steve Scherf et al.
# Submitted via: dBpowerAMP V12.0
#
DISCID=b90e720d
DTITLE=Terry Hanck - Greasy Soul Rockin' Blues
DYEAR=2011
DGENRE=Blues
TTITLE0=Here It Comes
TTITLE1=Keep A Drivin'
TTITLE2=Ain't That Just Like A Woman
TTITLE3=Catch That Teardrop
TTITLE4=You Coulda Let Me Go
TTITLE5=Side Tracked
TTITLE6=Girl, Girl, Girl
TTITLE7=Appreciate What You Got
TTITLE8=Train Kept A Rollin'
TTITLE9=I Kepp Holding On 
TTITLE10=You Give Me Nothing But The Blues
TTITLE11=My Girl Josephine
TTITLE12=Just One More Time
EXTD=
EXTT0=
EXTT1=
EXTT2=
EXTT3=
EXTT4=
EXTT5=
EXTT6=
EXTT7=
EXTT8=
EXTT9=
EXTT10=
EXTT11=
EXTT12=
PLAYORDER=
